# xmcd CD database file generated by OrangeCD 5.2
#
# Track frame offsets:
#	150
#	10838
#	20572
#	30466
#	42688
#	56405
#	69189
#	83709
#	92661
#	102356
#	117368
#	129480
#
# Disc length: 1905 seconds
#
# Revision: 0
# Processed by: cddbd v1.5.1PL2 Copyright (c) Steve Scherf et al.
# Submitted via: OrangeCD 5.2
#
DISCID=93076f0c
DTITLE=Eddie Low - Voice in a Million
DYEAR=1900
DGENRE=Country
TTITLE0=Through the Eyes of Love
TTITLE1=Merci Cherie
TTITLE2=Colour My World
TTITLE3=Love of the Common People
TTITLE4=Walk Hand in Hand
TTITLE5=Il Silenzio
TTITLE6=Crying Time
TTITLE7=On Broadway
TTITLE8=The Night We Called It a Day
TTITLE9=Maria
TTITLE10=Wimoweh
TTITLE11=Scarlet Ribbons
EXTD=
EXTT0=
EXTT1=
EXTT2=
EXTT3=
EXTT4=
EXTT5=
EXTT6=
EXTT7=
EXTT8=
EXTT9=
EXTT10=
EXTT11=
PLAYORDER=
